HIERARCHY
ROOT Hips
{
	OFFSET 0.000000 0.000000 0.000000
	CHANNELS 6 Xposition Yposition Zposition Xrotation Yrotation Zrotation
	JOINT LeftUpLeg_virtual
	{
		OFFSET 0.000000 0.000000 0.000000
		CHANNELS 3 Xrotation Yrotation Zrotation
		JOINT LeftUpLeg
		{
			OFFSET 15.427100 -6.655098 0.678600
			CHANNELS 3 Xrotation Yrotation Zrotation
			JOINT LeftLeg
			{
				OFFSET 4.081073 -39.591068 13.024000
				CHANNELS 3 Xrotation Yrotation Zrotation
				JOINT LeftFoot
				{
					OFFSET -4.081074 -37.707932 -15.979700
					CHANNELS 3 Xrotation Yrotation Zrotation
					JOINT LeftToeBase
					{
						OFFSET 5.346399 -15.068900 20.645000
						CHANNELS 3 Xrotation Yrotation Zrotation
						JOINT LeftToe_End
						{
							OFFSET 2.754700 0.931300 11.300900
							CHANNELS 3 Xrotation Yrotation Zrotation
							End Site
							{
								OFFSET 0 0 0
							}
						}
					}
				}
			}
		}
	}
	JOINT RightUpLeg_virtual
	{
		OFFSET 0.000000 0.000000 0.000000
		CHANNELS 3 Xrotation Yrotation Zrotation
		JOINT RightUpLeg
		{
			OFFSET -15.569500 -6.655098 0.678600
			CHANNELS 3 Xrotation Yrotation Zrotation
			JOINT RightLeg
			{
				OFFSET -4.081825 -39.591045 13.023800
				CHANNELS 3 Xrotation Yrotation Zrotation
				JOINT RightFoot
				{
					OFFSET 4.081824 -37.707954 -15.979600
					CHANNELS 3 Xrotation Yrotation Zrotation
					JOINT RightToeBase
					{
						OFFSET -5.346400 -15.068900 20.645000
						CHANNELS 3 Xrotation Yrotation Zrotation
						JOINT RightToe_End
						{
							OFFSET -2.754700 0.931300 11.300900
							CHANNELS 3 Xrotation Yrotation Zrotation
							End Site
							{
								OFFSET 0 0 0
							}
						}
					}
				}
			}
		}
	}
	JOINT Spine_virtual
	{
		OFFSET 0.000000 0.000000 0.000000
		CHANNELS 3 Xrotation Yrotation Zrotation
		JOINT Spine
		{
			OFFSET -0.279200 12.230698 -2.892100
			CHANNELS 3 Xrotation Yrotation Zrotation
			JOINT Spine1
			{
				OFFSET -0.232667 10.192268 -1.242267
				CHANNELS 3 Xrotation Yrotation Zrotation
				JOINT Spine1_split
				{
					OFFSET -0.232667 10.192268 -1.242267
					CHANNELS 3 Xrotation Yrotation Zrotation
					JOINT Spine2
					{
						OFFSET -0.232667 10.192268 -1.242267
						CHANNELS 3 Xrotation Yrotation Zrotation
						JOINT Neck_virtual
						{
							OFFSET 0.000000 0.000000 0.000000
							CHANNELS 3 Xrotation Yrotation Zrotation
							JOINT Neck
							{
								OFFSET -0.418800 17.814194 8.416900
								CHANNELS 3 Xrotation Yrotation Zrotation
								JOINT Head
								{
									OFFSET 0.000000 7.031097 3.806800
									CHANNELS 3 Xrotation Yrotation Zrotation
									JOINT HeadTop_End
									{
										OFFSET 0.000000 24.646606 12.978600
										CHANNELS 3 Xrotation Yrotation Zrotation
										End Site
										{
											OFFSET 0 0 0
										}
									}
								}
							}
						}
						JOINT LeftShoulder_virtual
						{
							OFFSET 0.000000 0.000000 0.000000
							CHANNELS 3 Xrotation Yrotation Zrotation
							JOINT LeftShoulder
							{
								OFFSET 8.476499 7.247704 -3.868750
								CHANNELS 3 Xrotation Yrotation Zrotation
								JOINT LeftShoulder_split
								{
									OFFSET 8.476499 7.247704 -3.868750
									CHANNELS 3 Xrotation Yrotation Zrotation
									JOINT LeftArm
									{
										OFFSET 9.308998 -2.777710 0.208600
										CHANNELS 3 Xrotation Yrotation Zrotation
										JOINT LeftForeArm
										{
											OFFSET 29.972298 0.000000 0.000000
											CHANNELS 3 Xrotation Yrotation Zrotation
											JOINT LeftHand
											{
												OFFSET 26.026505 0.000000 0.000000
												CHANNELS 3 Xrotation Yrotation Zrotation
												End Site
												{
													OFFSET 0 0 0
												}
											}
										}
									}
								}
							}
						}
						JOINT RightShoulder_virtual
						{
							OFFSET 0.000000 0.000000 0.000000
							CHANNELS 3 Xrotation Yrotation Zrotation
							JOINT RightShoulder
							{
								OFFSET -7.570500 7.247704 -3.868750
								CHANNELS 3 Xrotation Yrotation Zrotation
								JOINT RightShoulder_split
								{
									OFFSET -7.570500 7.247704 -3.868750
									CHANNELS 3 Xrotation Yrotation Zrotation
									JOINT RightArm
									{
										OFFSET -9.308998 -2.777710 0.208500
										CHANNELS 3 Xrotation Yrotation Zrotation
										JOINT RightForeArm
										{
											OFFSET -29.972300 0.000000 0.000000
											CHANNELS 3 Xrotation Yrotation Zrotation
											JOINT RightHand
											{
												OFFSET -26.026505 0.000000 0.000000
												CHANNELS 3 Xrotation Yrotation Zrotation
												End Site
												{
													OFFSET 0 0 0
												}
											}
										}
									}
								}
							}
						}
					}
				}
			}
		}
	}
}
MOTION
Frames: 4
Frame Time: 0.03333333
0.130115 93.833664 -2.174656 0.000000 0.000000 0.000000 0.884136 -30.640007 -0.616760 -17.451348 16.600833 14.763432 17.723559 8.978001 -2.578438 -2.820450 -4.547823 -2.133753 1.227361 0.050891 -1.779436 0.000000 0.000000 0.000000 1.150425 -29.993915 -0.320820 -5.734313 -3.119137 -4.478578 8.760816 5.311651 -0.852495 -11.029028 2.406128 5.880083 -4.983987 0.026884 -0.389685 0.000000 0.000000 0.000000 1.193817 -27.892846 -1.298985 5.993425 -1.450696 0.160904 2.294495 -1.090292 2.698252 0.317470 -3.852949 0.322185 0.000000 0.000000 0.000000 2.519775 -0.367622 2.571133 -6.758383 18.224823 -8.020453 -1.941936 22.177716 4.061537 0.000000 0.000000 0.000000 2.484649 0.004529 2.794027 0.893752 -10.335596 -3.443049 0.249726 -3.843716 -1.828459 -60.826912 -0.142909 -34.632474 22.856050 -63.956375 24.005844 0.000000 0.000000 0.000000 2.217264 -0.544017 2.213063 3.812542 7.532262 7.737322 -1.107245 -3.841587 1.980270 -1.233522 -0.811869 61.334901 16.248344 14.757126 -7.661281 0.000000 0.000000 0.000000 
0.270110 93.542412 -2.115467 0.000000 0.000000 0.000000 0.664581 -29.786260 -0.695129 -18.236147 17.622501 14.722145 18.136212 8.722276 -2.390216 -3.241666 -5.042651 -2.681462 1.086624 -0.035602 -1.520402 0.000000 0.000000 0.000000 1.185957 -28.998135 -0.316008 -5.376108 -2.660240 -4.661663 8.630376 4.803410 -1.155270 -11.643453 1.810742 7.067136 -5.650313 -0.048274 -0.570309 0.000000 0.000000 0.000000 0.949426 -26.232667 -0.941017 5.756371 -1.114811 0.156278 2.541358 -0.856487 2.619528 -0.928080 -1.327012 0.292936 0.000000 0.000000 0.000000 2.236357 -0.246789 2.366650 -6.628346 17.151694 -7.612837 -2.821777 21.568143 4.519891 0.000000 0.000000 0.000000 2.623316 0.207452 2.671066 0.457032 -9.038470 -3.922024 -0.906349 -1.989144 -2.530114 -59.866827 2.758856 -33.972746 23.935906 -64.265735 24.752515 0.000000 0.000000 0.000000 2.153980 -0.319647 2.078824 3.788598 7.817312 8.255458 -1.070978 -3.853810 1.207169 -0.280397 -0.565476 60.679243 16.695798 15.509638 -7.849573 0.000000 0.000000 0.000000 
0.267977 92.832542 -1.685238 0.000000 0.000000 0.000000 0.496779 -26.462911 -0.570110 -19.523804 17.289849 14.218717 19.314346 8.067817 -2.294368 -3.608772 -6.111655 -3.033703 0.781049 -0.153113 -1.091568 0.000000 0.000000 0.000000 1.230515 -25.294106 -0.243916 -3.981649 -3.171030 -4.890792 9.536133 2.949827 -1.458609 -14.284601 -0.233551 7.426310 -4.371486 -0.179377 -0.613214 0.000000 0.000000 0.000000 0.953938 -22.659373 -0.452914 5.275823 -0.368438 0.327339 2.881463 -0.266265 2.456028 -1.643324 0.409940 0.228085 0.000000 0.000000 0.000000 2.132364 0.206849 2.133714 -7.166467 14.621284 -6.970185 -3.514324 18.778903 4.340404 0.000000 0.000000 0.000000 2.779156 0.668843 2.396840 -0.091748 -7.042860 -4.616256 -1.518359 -0.975824 -2.292887 -61.145219 7.930265 -32.449986 25.249872 -67.109832 25.456909 0.000000 0.000000 0.000000 2.105746 0.235288 1.894383 3.826507 8.458587 9.083650 -1.118668 -3.564868 0.420622 1.206654 -1.653602 60.265655 17.809457 17.317980 -8.591482 0.000000 0.000000 0.000000 
0.210599 91.998367 -0.890385 0.000000 0.000000 0.000000 0.437112 -20.985367 -0.282829 -20.947442 15.540864 13.168727 20.670748 7.174480 -2.237034 -3.363171 -7.569957 -3.114121 0.328117 -0.265497 -0.607759 0.000000 0.000000 0.000000 1.285346 -19.462803 -0.071377 -1.946856 -4.614398 -5.290347 11.015966 0.192709 -1.571619 -17.833170 -3.096386 7.247026 -2.242378 -0.258735 -0.514767 0.000000 0.000000 0.000000 1.217706 -17.603706 0.011495 4.515453 0.769176 0.592348 3.266202 0.657878 2.146845 -1.339932 1.097208 0.146182 0.000000 0.000000 0.000000 2.219327 1.006735 1.818963 -8.232719 10.752051 -5.971292 -3.947503 14.048241 3.516753 0.000000 0.000000 0.000000 2.953389 1.419331 2.003020 -0.673806 -4.601404 -5.294908 -1.059119 -1.418318 -0.823479 -64.314420 13.393657 -30.266552 26.701566 -71.744806 26.011539 0.000000 0.000000 0.000000 2.118398 1.110037 1.599496 3.876156 9.278007 10.204946 -1.324125 -3.203581 -0.170673 2.825068 -3.764045 60.146209 19.359007 19.486473 -9.728629 0.000000 0.000000 0.000000 
